<svg data-v-423bf9ae="" xmlns="http://www.w3.org/2000/svg" viewBox="0 0 550.2349282683973 60" class="font"><!----><!----><!----><g data-v-423bf9ae="" id="2e4bb2d1-1482-41cd-9050-c2196082b3b6" fill="white" transform="matrix(6.12870278179688,0,0,6.12870278179688,-8.764039972124124,-3.4933607206022543)"><path d="M1.43 10.22L5.08 10.22C7.81 10.22 9.39 8.15 9.39 5.42C9.39 2.67 7.81 0.57 5.08 0.57L1.43 0.57ZM2.35 9.35L2.35 1.44L5.08 1.44C7.28 1.44 8.47 3.18 8.47 5.42C8.47 7.64 7.28 9.35 5.08 9.35ZM17.39 6.93C17.39 4.86 16.03 3.54 14.17 3.54C12.32 3.54 10.84 4.86 10.84 6.93C10.84 9.00 12.32 10.36 14.17 10.36C15.40 10.36 16.52 9.77 17.09 8.72L16.32 8.39C15.89 9.10 15.09 9.51 14.20 9.51C12.88 9.51 11.90 8.72 11.75 7.32L17.37 7.32C17.39 7.20 17.39 7.06 17.39 6.93ZM11.76 6.55C11.93 5.15 12.88 4.40 14.17 4.40C15.44 4.40 16.38 5.19 16.51 6.55ZM22.30 3.54C21.49 3.54 20.43 3.92 20.03 4.86L20.03 3.68L19.14 3.68L19.14 10.22L20.03 10.22L20.03 6.59C20.06 5.01 21.17 4.42 22.22 4.42C23.27 4.42 24.07 5.19 24.07 6.45L24.07 10.22L24.96 10.22L24.96 6.41C24.96 4.61 23.88 3.54 22.30 3.54ZM27.55 1.90C27.94 1.90 28.25 1.64 28.25 1.27C28.25 0.90 27.94 0.63 27.55 0.63C27.19 0.63 26.87 0.90 26.87 1.27C26.87 1.64 27.19 1.90 27.55 1.90ZM27.10 10.22L28 10.22L28 3.68L27.10 3.68ZM38.08 3.54C37.28 3.54 36.15 3.81 35.67 5.11C35.31 4.10 34.44 3.54 33.38 3.54C32.41 3.54 31.47 3.99 31.14 4.86L31.14 3.68L30.24 3.68L30.24 10.22L31.14 10.22L31.14 6.59C31.16 5.03 32.17 4.41 33.22 4.41C34.26 4.41 35.01 5.18 35.01 6.45L35.01 10.22L35.90 10.22L35.90 6.83L35.91 6.89C35.81 5.29 36.71 4.40 37.94 4.41C39.02 4.41 39.77 5.19 39.77 6.45L39.77 10.22L40.67 10.22L40.67 6.41C40.67 4.61 39.66 3.54 38.08 3.54ZM43.13 10.22L46.79 10.22C49.52 10.22 51.10 8.15 51.10 5.42C51.10 2.67 49.52 0.57 46.79 0.57L43.13 0.57ZM44.06 9.35L44.06 1.44L46.79 1.44C48.99 1.44 50.18 3.18 50.18 5.42C50.18 7.64 48.99 9.35 46.79 9.35ZM55.94 3.54C54.92 3.54 54.22 4.17 53.90 5.28L53.90 3.68L52.99 3.68L52.99 10.22L53.90 10.22L53.90 7.76C53.90 6.15 54.38 4.41 55.93 4.41C56.17 4.41 56.48 4.45 56.81 4.59L56.98 3.74C56.73 3.61 56.31 3.54 55.94 3.54ZM64.01 6.93C64.01 4.86 62.65 3.54 60.79 3.54C58.94 3.54 57.46 4.86 57.46 6.93C57.46 9.00 58.94 10.36 60.79 10.36C62.02 10.36 63.14 9.77 63.71 8.72L62.94 8.39C62.51 9.10 61.71 9.51 60.82 9.51C59.50 9.51 58.52 8.72 58.37 7.32L63.99 7.32C64.01 7.20 64.01 7.06 64.01 6.93ZM58.38 6.55C58.55 5.15 59.50 4.40 60.79 4.40C62.06 4.40 63 5.19 63.13 6.55ZM71.23 3.68L71.23 4.94C70.74 4.06 69.73 3.54 68.63 3.54C66.79 3.54 65.31 4.96 65.31 6.94C65.31 8.93 66.81 10.36 68.63 10.36C69.72 10.36 70.74 9.84 71.23 8.95L71.23 10.22L72.13 10.22L72.13 3.68ZM68.70 9.51C67.33 9.51 66.21 8.39 66.21 6.93C66.21 5.49 67.33 4.40 68.70 4.40C70 4.40 71.23 5.39 71.23 6.97C71.23 8.48 70.06 9.51 68.70 9.51ZM82.21 3.54C81.41 3.54 80.28 3.81 79.80 5.11C79.44 4.10 78.57 3.54 77.50 3.54C76.54 3.54 75.60 3.99 75.26 4.86L75.26 3.68L74.37 3.68L74.37 10.22L75.26 10.22L75.26 6.59C75.29 5.03 76.30 4.41 77.35 4.41C78.39 4.41 79.14 5.18 79.14 6.45L79.14 10.22L80.02 10.22L80.02 6.83L80.04 6.89C79.94 5.29 80.84 4.40 82.07 4.41C83.15 4.41 83.90 5.19 83.90 6.45L83.90 10.22L84.80 10.22L84.80 6.41C84.80 4.61 83.79 3.54 82.21 3.54ZM88.80 10.36C90.16 10.36 91.21 9.62 91.21 8.46C91.21 7.70 90.82 6.93 89.54 6.62L88.58 6.38C88.10 6.27 87.57 6.01 87.57 5.39C87.57 4.77 88.09 4.34 88.84 4.34C89.49 4.34 90.06 4.73 90.10 5.32L90.97 5.32C90.93 4.14 89.92 3.54 88.83 3.54C87.58 3.54 86.67 4.31 86.67 5.38C86.67 6.47 87.42 6.94 88.34 7.17L89.28 7.39C89.95 7.56 90.31 7.91 90.31 8.44C90.31 9.10 89.74 9.56 88.80 9.56C87.85 9.56 87.35 9.00 87.25 8.46L86.42 8.46C86.53 9.70 87.67 10.36 88.80 10.36Z"></path></g><!----><!----></svg>